<svg width="41" height="34" viewBox="0 0 41 34" fill="none" xmlns="http://www.w3.org/2000/svg">
<g opacity="0.5">
<path d="M10.8548 17.3167C10.4552 17.5165 10.207 17.9181 10.207 18.3649V20.6274C10.207 21.0741 10.4552 21.4758 10.8548 21.6756L12.1664 22.3285C12.2888 22.6886 12.4362 23.0442 12.6033 23.3819L12.1388 24.7752C11.9976 25.1991 12.106 25.6586 12.422 25.9745L14.0218 27.5743C14.3377 27.8902 14.7973 27.9986 15.221 27.8574L16.6109 27.3916C16.9521 27.56 17.3077 27.7074 17.6641 27.8281L18.3206 29.1413C18.5204 29.5409 18.922 29.7891 19.3688 29.7891H21.6313C22.078 29.7891 22.4797 29.5409 22.6795 29.1413L23.3324 27.8298C23.6925 27.7074 24.0481 27.56 24.3858 27.3929L25.7791 27.8573C26.2032 27.9987 26.6626 27.8902 26.9784 27.5742L28.5782 25.9744C28.8941 25.6585 29.0026 25.199 28.8613 24.7752L28.3955 23.3853C28.5639 23.0441 28.7113 22.6885 28.832 22.3321L30.1452 21.6755C30.5448 21.4758 30.793 21.0741 30.793 20.6273V18.3648C30.793 17.9181 30.5448 17.5165 30.1452 17.3166L28.8337 16.6638C28.7113 16.3037 28.5639 15.948 28.3968 15.6104L28.8612 14.217C29.0025 13.7932 28.8941 13.3337 28.5781 13.0178C28.3493 12.789 27.9783 12.789 27.7495 13.0178C27.5207 13.2466 27.5207 13.6177 27.7495 13.8465L27.285 15.24C27.187 15.5345 27.2081 15.849 27.3446 16.1255C27.4905 16.421 27.618 16.729 27.7241 17.0408C27.8232 17.3325 28.0305 17.5695 28.3079 17.7082L29.6211 18.3648V20.6273L28.3078 21.2839C28.0305 21.4226 27.8231 21.6597 27.724 21.9514C27.618 22.2632 27.4904 22.5712 27.3446 22.8666C27.208 23.1432 27.1869 23.4577 27.285 23.7523L27.7495 25.1457L26.1496 26.7455L24.7561 26.281C24.4616 26.183 24.1471 26.2041 23.8705 26.3406C23.5751 26.4865 23.2671 26.6141 22.9553 26.7201C22.6636 26.8192 22.4266 27.0265 22.2879 27.3039L21.6313 28.6171H19.3688L18.7122 27.3038C18.5735 27.0265 18.3364 26.8191 18.0447 26.72C17.7329 26.6141 17.4249 26.4864 17.1295 26.3406C16.8528 26.2041 16.5384 26.1829 16.2438 26.281L14.8504 26.7455L13.2505 25.1456L13.7151 23.7521C13.8131 23.4577 13.792 23.1431 13.6555 22.8666C13.5096 22.5711 13.382 22.2631 13.276 21.9513C13.1769 21.6596 12.9696 21.4226 12.6922 21.2839L11.379 20.6273V18.3648L12.6923 17.7082C12.9696 17.5695 13.177 17.3324 13.2761 17.0407C13.382 16.7289 13.5097 16.4209 13.6555 16.1255C13.792 15.8489 13.8132 15.5345 13.7151 15.2398L13.2505 13.8464L14.8505 12.2466L16.244 12.7111C16.5384 12.8091 16.8529 12.788 17.1295 12.6515C17.425 12.5056 17.733 12.378 18.0448 12.272C18.3365 12.1729 18.5735 11.9656 18.7122 11.6882L19.3688 10.375H21.6313L22.2879 11.6883C22.4266 11.9656 22.6637 12.173 22.9554 12.2721C23.2672 12.378 23.5752 12.5057 23.8705 12.6515C24.1472 12.788 24.4617 12.8092 24.7563 12.7111L26.1498 12.2466C26.4721 12.2199 26.712 11.9372 26.6855 11.6148C26.6591 11.2923 26.3771 11.0521 26.0537 11.0787C25.9605 11.0863 25.868 11.1052 25.7791 11.1349L24.3892 11.6006C24.048 11.4323 23.6924 11.2848 23.336 11.1641L22.6795 9.85094C22.4797 9.45133 22.078 9.20312 21.6313 9.20312H19.3688C18.922 9.20312 18.5204 9.45133 18.3205 9.85094L17.6677 11.1625C17.3076 11.2848 16.952 11.4323 16.6143 11.5994L15.2209 11.1349C14.7971 10.9937 14.3376 11.1022 14.0217 11.418L12.4219 13.0178C12.106 13.3337 11.9975 13.7932 12.1387 14.217L12.6045 15.6069C12.4362 15.9481 12.2887 16.3037 12.168 16.6601L10.8548 17.3167Z" fill="white" stroke="white" stroke-width="0.4"/>
<path d="M17.2741 16.656C17.0453 16.4272 16.6743 16.4272 16.4455 16.656L14.0188 19.0827C13.79 19.3115 13.79 19.6826 14.0188 19.9113L16.4455 22.338C16.6743 22.5669 17.0454 22.5669 17.2741 22.338C17.5029 22.1092 17.5029 21.7382 17.2741 21.5094L15.2617 19.497L17.2741 17.4846C17.503 17.2558 17.503 16.8847 17.2741 16.656Z" fill="white" stroke="white" stroke-width="0.4"/>
<path d="M23.7259 22.338C23.9547 22.5669 24.3257 22.5669 24.5545 22.338L26.9812 19.9113C27.21 19.6825 27.21 19.3115 26.9812 19.0827L24.5545 16.656C24.3256 16.4272 23.9546 16.4272 23.7259 16.656C23.4971 16.8848 23.4971 17.2558 23.7259 17.4846L25.7383 19.497L23.7259 21.5094C23.497 21.7382 23.497 22.1093 23.7259 22.338Z" fill="white" stroke="white" stroke-width="0.4"/>
<path d="M21.9755 16.5445C21.686 16.3996 21.3341 16.517 21.1894 16.8065L18.7627 21.66C18.6179 21.9495 18.7353 22.3014 19.0247 22.4461C19.3142 22.5909 19.6661 22.4735 19.8108 22.1841L22.2375 17.3306C22.3823 17.0411 22.265 16.6892 21.9755 16.5445Z" fill="white" stroke="white" stroke-width="0.4"/>
</g>
<path d="M37.9609 0.708984H7.58227C7.25867 0.708984 6.99633 0.971328 6.99633 1.29492C6.99633 1.61852 7.25867 1.88086 7.58227 1.88086H37.9609C38.7148 1.88086 39.3281 2.49422 39.3281 3.24805V5.5625H1.67188V3.24805C1.67188 2.49422 2.28523 1.88086 3.03906 1.88086H4.84789C5.17148 1.88086 5.43383 1.61852 5.43383 1.29492C5.43383 0.971328 5.17148 0.708984 4.84789 0.708984H3.03906C1.63906 0.708984 0.5 1.84805 0.5 3.24805V30.8896C0.5 32.2896 1.63906 33.4287 3.03906 33.4287H7.63797C7.96156 33.4287 8.22391 33.1663 8.22391 32.8427C8.22391 32.5191 7.96156 32.2568 7.63797 32.2568H3.03906C2.28523 32.2568 1.67188 31.6434 1.67188 30.8896V6.73438H39.3281V30.8897C39.3281 31.6435 38.7148 32.2569 37.9609 32.2569H10.3723C10.0487 32.2569 9.78641 32.5192 9.78641 32.8428C9.78641 33.1664 10.0487 33.4288 10.3723 33.4288H37.9609C39.3609 33.4288 40.5 32.2897 40.5 30.8897V3.24805C40.5 1.84797 39.3609 0.708984 37.9609 0.708984Z" fill="white" stroke="white" stroke-width="0.4"/>
<path opacity="0.5" d="M37.4873 4.30664C37.8109 4.30664 38.0732 4.04431 38.0732 3.7207C38.0732 3.3971 37.8109 3.13477 37.4873 3.13477C37.1637 3.13477 36.9014 3.3971 36.9014 3.7207C36.9014 4.04431 37.1637 4.30664 37.4873 4.30664Z" fill="white"/>
<path opacity="0.5" d="M35.0605 4.30664C35.3842 4.30664 35.6465 4.04431 35.6465 3.7207C35.6465 3.3971 35.3842 3.13477 35.0605 3.13477C34.7369 3.13477 34.4746 3.3971 34.4746 3.7207C34.4746 4.04431 34.7369 4.30664 35.0605 4.30664Z" fill="white"/>
<path opacity="0.5" d="M32.6338 4.30664C32.9574 4.30664 33.2197 4.04431 33.2197 3.7207C33.2197 3.3971 32.9574 3.13477 32.6338 3.13477C32.3102 3.13477 32.0479 3.3971 32.0479 3.7207C32.0479 4.04431 32.3102 4.30664 32.6338 4.30664Z" fill="white"/>
</svg>
