<svg width="30" height="30" viewBox="0 0 30 30" fill="none" xmlns="http://www.w3.org/2000/svg">
<g clip-path="url(#clip0_8839_2184)">
<path d="M30 10.3125V3.80859C30 1.70854 28.2915 0 26.1914 0H15.293C13.1929 0 11.4844 1.70854 11.4844 3.80859V10.6055H10.3125C7.09998 10.6055 4.40572 12.8654 3.73506 15.8789H3.57422V10.4543C4.59721 10.0915 5.33203 9.11455 5.33203 7.96875C5.33203 6.51486 4.1492 5.33203 2.69531 5.33203C1.24143 5.33203 0.0585938 6.51486 0.0585938 7.96875C0.0585938 9.11455 0.793418 10.0915 1.81641 10.4543V16.0102C0.763066 16.356 0 17.3481 0 18.5156V22.0312C0 23.4851 1.18283 24.668 2.63672 24.668H3.72229C4.37086 27.7107 7.07918 30 10.3125 30H19.6875C22.9208 30 25.6291 27.7107 26.2777 24.668H27.3633C28.8172 24.668 30 23.4851 30 22.0312V18.5156C30 17.0617 28.8172 15.8789 27.3633 15.8789H26.2646C26.128 15.2648 25.9063 14.6732 25.6056 14.1211H26.1914C28.2915 14.1211 30 12.4126 30 10.3125ZM13.2422 3.80859C13.2422 2.67779 14.1622 1.75781 15.293 1.75781H26.1914C27.3222 1.75781 28.2422 2.67779 28.2422 3.80859V10.3125C28.2422 11.4433 27.3222 12.3633 26.1914 12.3633H15.8789C15.7424 12.3633 15.6079 12.395 15.4859 12.456L13.2422 13.5779V3.80859ZM2.69531 7.08984C3.17994 7.08984 3.57422 7.48412 3.57422 7.96875C3.57422 8.45338 3.17994 8.84766 2.69531 8.84766C2.21068 8.84766 1.81641 8.45338 1.81641 7.96875C1.81641 7.48412 2.21068 7.08984 2.69531 7.08984ZM1.75781 22.0312V18.5156C1.75781 18.031 2.15209 17.6367 2.63672 17.6367H3.57422V22.9102H2.63672C2.15209 22.9102 1.75781 22.5159 1.75781 22.0312ZM28.2422 18.5156V22.0312C28.2422 22.5159 27.8479 22.9102 27.3633 22.9102H26.4258V17.6367H27.3633C27.8479 17.6367 28.2422 18.031 28.2422 18.5156ZM24.668 17.3438V23.2617C24.668 26.0079 22.4337 28.2422 19.6875 28.2422H10.3125C7.56627 28.2422 5.33203 26.0079 5.33203 23.2617V17.3438C5.33203 14.5975 7.56627 12.3633 10.3125 12.3633H11.4844V15C11.4844 15.6523 12.1724 16.0781 12.7563 15.7861L16.0864 14.1211H23.4833C24.2473 15.0202 24.668 16.1604 24.668 17.3438Z" fill="white"/>
<g opacity="0.5">
<path d="M10.6055 17.6367C10.1201 17.6367 9.72656 18.0302 9.72656 18.5156V20.2734C9.72656 20.7588 10.1201 21.1523 10.6055 21.1523C11.0909 21.1523 11.4844 20.7588 11.4844 20.2734V18.5156C11.4844 18.0302 11.0909 17.6367 10.6055 17.6367Z" fill="white"/>
<path d="M19.3945 21.1523C19.8799 21.1523 20.2734 20.7588 20.2734 20.2734V18.5156C20.2734 18.0302 19.8799 17.6367 19.3945 17.6367C18.9091 17.6367 18.5156 18.0302 18.5156 18.5156V20.2734C18.5156 20.7588 18.9091 21.1523 19.3945 21.1523Z" fill="white"/>
<path d="M15.9375 6.21094H25.5469C26.0323 6.21094 26.4258 5.81742 26.4258 5.33203C26.4258 4.84664 26.0323 4.45312 25.5469 4.45312H15.9375C15.4521 4.45312 15.0586 4.84664 15.0586 5.33203C15.0586 5.81742 15.4521 6.21094 15.9375 6.21094Z" fill="white"/>
<path d="M15.9375 9.72656H25.5469C26.0323 9.72656 26.4258 9.33305 26.4258 8.84766C26.4258 8.36227 26.0323 7.96875 25.5469 7.96875H15.9375C15.4521 7.96875 15.0586 8.36227 15.0586 8.84766C15.0586 9.33305 15.4521 9.72656 15.9375 9.72656Z" fill="white"/>
<path d="M12.3633 23.7891C12.3633 24.2745 12.7568 24.668 13.2422 24.668H16.7578C17.2432 24.668 17.6367 24.2745 17.6367 23.7891C17.6367 23.3037 17.2432 22.9102 16.7578 22.9102H13.2422C12.7568 22.9102 12.3633 23.3037 12.3633 23.7891Z" fill="white"/>
</g>
</g>
<defs>
<clipPath id="clip0_8839_2184">
<rect width="30" height="30" fill="white"/>
</clipPath>
</defs>
</svg>
