<svg width="12" height="12" viewBox="0 0 12 12" fill="none" xmlns="http://www.w3.org/2000/svg">
<path opacity="0.5" d="M2.3635 1.3665C2.5165 1.2125 2.7305 1.1125 3.1355 1.0575C3.5525 1.001 4.1045 1 4.8965 1H7.1035C7.8955 1 8.4475 1.001 8.8645 1.0575C9.2695 1.1125 9.4835 1.2125 9.6365 1.3665C9.789 1.5205 9.8885 1.7365 9.943 2.145C9.999 2.565 10 3.1225 10 3.921V9H3.713C3.171 9 2.982 9.003 2.8365 9.034C2.58 9.089 2.3565 9.2075 2.194 9.3675C2.139 9.4215 2.112 9.448 2.0485 9.62C2.01849 9.69308 2.00205 9.77102 2 9.85V3.921C2 3.1225 2.001 2.5655 2.057 2.145C2.1115 1.737 2.211 1.5205 2.3635 1.3665Z" fill="white"/>
<path d="M10.0001 9H3.71311C3.17111 9 2.98211 9.003 2.83661 9.034C2.58011 9.089 2.35661 9.2075 2.19411 9.3675C2.13911 9.4215 2.11211 9.448 2.04861 9.62C1.98511 9.792 1.99511 9.8645 2.01561 10.01L2.02661 10.085C2.08161 10.4115 2.18161 10.584 2.33461 10.707C2.48811 10.83 2.70311 10.9105 3.10961 10.954C3.52811 10.999 4.08261 11 4.87761 11H7.09261C7.88761 11 8.44261 10.9995 8.86061 10.954C9.26711 10.9105 9.48211 10.83 9.63561 10.707C9.73561 10.627 9.81261 10.526 9.86911 10.375H4.00011C3.90066 10.375 3.80527 10.3355 3.73495 10.2652C3.66462 10.1948 3.62511 10.0995 3.62511 10C3.62511 9.90054 3.66462 9.80516 3.73495 9.73483C3.80527 9.66451 3.90066 9.625 4.00011 9.625H9.98761C9.99661 9.4435 9.99911 9.237 10.0001 9ZM3.62511 3.5C3.62511 3.40054 3.66462 3.30516 3.73495 3.23483C3.80527 3.16451 3.90066 3.125 4.00011 3.125H8.00011C8.09957 3.125 8.19495 3.16451 8.26528 3.23483C8.3356 3.30516 8.37511 3.40054 8.37511 3.5C8.37511 3.59946 8.3356 3.69484 8.26528 3.76517C8.19495 3.83549 8.09957 3.875 8.00011 3.875H4.00011C3.90066 3.875 3.80527 3.83549 3.73495 3.76517C3.66462 3.69484 3.62511 3.59946 3.62511 3.5ZM4.00011 4.875C3.90066 4.875 3.80527 4.91451 3.73495 4.98484C3.66462 5.05516 3.62511 5.15054 3.62511 5.25C3.62511 5.34946 3.66462 5.44484 3.73495 5.51516C3.80527 5.58549 3.90066 5.625 4.00011 5.625H6.50011C6.59957 5.625 6.69495 5.58549 6.76528 5.51516C6.8356 5.44484 6.87511 5.34946 6.87511 5.25C6.87511 5.15054 6.8356 5.05516 6.76528 4.98484C6.69495 4.91451 6.59957 4.875 6.50011 4.875H4.00011Z" fill="white"/>
</svg>
