<svg width="12" height="12" viewBox="0 0 12 12" fill="none" xmlns="http://www.w3.org/2000/svg">
<path d="M8 1H7.5C6.793 1 6.4395 1 6.22 1.22C6 1.439 6 1.7925 6 2.5C6 3.2075 6 3.5605 6.22 3.78C6.439 4 6.7925 4 7.5 4H8C8.707 4 9.0605 4 9.28 3.78C9.4225 3.638 9.473 3.4395 9.49 3.125H9.5L10.3075 3.4615C10.621 3.592 10.7775 3.657 10.8885 3.583C11 3.509 11 3.339 11 3V2C11 1.661 11 1.491 10.8885 1.417C10.7775 1.343 10.621 1.408 10.3075 1.5385L9.5 1.875H9.49C9.4725 1.5605 9.4225 1.362 9.28 1.22C9.061 1 8.7075 1 8 1ZM3.9925 8.75C2.5725 8.75 1.8625 8.75 1.422 8.3105C1.136 8.026 1.035 7.629 1 7V6.5H11V7C10.965 7.629 10.864 8.026 10.578 8.3105C10.137 8.75 9.4275 8.75 8.008 8.75H6.3765V10.75H8.0075C8.2155 10.75 8.384 10.918 8.384 11.125C8.384 11.332 8.2155 11.5 8.0075 11.5H3.9925C3.94313 11.5002 3.8942 11.4906 3.84853 11.4719C3.80286 11.4531 3.76135 11.4255 3.72636 11.3907C3.69138 11.3559 3.66363 11.3144 3.64469 11.2689C3.62575 11.2233 3.616 11.1744 3.616 11.125C3.616 10.918 3.7845 10.75 3.9925 10.75H5.6235V8.75H3.9925Z" fill="white"/>
<path opacity="0.5" d="M10.9996 5V5.5C10.9996 5.776 10.9966 6.275 10.9931 6.5H0.999602C0.996102 6.275 0.999602 5.776 0.999602 5.5V5C0.999602 3.1145 0.999602 2.1715 1.5856 1.586C2.1716 1.0005 3.1141 1 4.9996 1H5.4586C5.3561 1.192 5.3086 1.393 5.2836 1.577C5.2496 1.832 5.2496 2.141 5.2496 2.459V2.541C5.2496 2.859 5.2496 3.168 5.2836 3.423C5.3226 3.7105 5.4166 4.038 5.6886 4.3105C5.9611 4.583 6.2891 4.677 6.5766 4.7155C6.8316 4.7505 7.1406 4.7505 7.4586 4.75H8.0406C8.3586 4.75 8.6676 4.75 8.9226 4.716C9.2101 4.677 9.5376 4.583 9.8101 4.311C9.8681 4.25233 9.91844 4.192 9.9611 4.13L10.0186 4.154L10.0471 4.1655C10.1771 4.22 10.3421 4.2885 10.4896 4.326C10.6061 4.356 10.7926 4.387 10.9986 4.3395C10.9993 4.54583 10.9996 4.766 10.9996 5Z" fill="white"/>
</svg>
