<svg width="40" height="40" viewBox="0 0 40 40" fill="none" xmlns="http://www.w3.org/2000/svg">
<g clip-path="url(#clip0_8864_1407)">
<path opacity="0.5" fill-rule="evenodd" clip-rule="evenodd" d="M26.1719 28.5938H16.5625C16.1719 28.5938 15.9375 28.3594 15.9375 27.9688V15.3125C15.9375 14.9219 16.1719 14.6094 16.5625 14.6094H25.9375C26.3281 14.6094 26.6406 14.9219 26.6406 15.3125V17.4219C26.6406 17.8125 26.3281 18.125 25.9375 18.125H19.8438V19.5312H25.4688C25.8594 19.5312 26.1719 19.8438 26.1719 20.2344V22.3438C26.1719 22.7344 25.8594 23.0469 25.4688 23.0469H19.8438V25.0781H26.1719C26.5625 25.0781 26.875 25.3906 26.875 25.7812V27.9688C26.875 28.3594 26.5625 28.5938 26.1719 28.5938ZM16.7188 27.8125H26.0938V25.8594H19.4531C19.2188 25.8594 19.0625 25.7031 19.0625 25.4688V22.6562C19.0625 22.4219 19.2188 22.2656 19.4531 22.2656H25.3906V20.3125H19.4531C19.2188 20.3125 19.0625 20.1562 19.0625 19.9219V17.7344C19.0625 17.5 19.2188 17.3438 19.4531 17.3438H25.8594V15.3906H16.7188V27.8125Z" fill="white"/>
<path fill-rule="evenodd" clip-rule="evenodd" d="M30.7812 34.0625H37.1875C38.75 34.0625 40 32.8125 40 31.25V7.42188V3.90625C40 2.5 38.75 1.25 37.2656 1.25H14.8292L14.2188 0.3125C14.1406 0.234375 14.0625 0.15625 13.9062 0.15625H2.89062C1.32812 0.15625 0 1.40625 0 2.96875V7.42188V31.25C0 32.8125 1.25 34.0625 2.8125 34.0625H9.21875V35.625V36.0156C9.21875 37.4219 10.3906 38.6719 11.7969 38.6719H14.1406V39.4531C14.1406 39.6094 14.2188 39.6875 14.2969 39.7656C14.375 39.8438 14.4531 39.8438 14.5312 39.8438C14.6094 39.8438 14.6875 39.8438 14.6875 39.7656L16.0156 39.1406L17.4219 39.8438C17.5781 39.8438 17.6562 39.8438 17.8125 39.7656C17.8906 39.6875 17.9688 39.6094 17.9688 39.4531V38.6719H30.3906C30.625 38.6719 30.7812 38.5156 30.7812 38.2812V35.8594V34.0625ZM30.7812 33.2812H37.1875C38.2812 33.2812 39.2188 32.3438 39.2188 31.25V7.8125H18.3594H0.78125V31.25C0.78125 32.3438 1.71875 33.2812 2.8125 33.2812H9.21875V12.0312C9.21875 10.625 10.3906 9.45312 11.7969 9.45312H12.4219H30.3906C30.625 9.45312 30.7812 9.60938 30.7812 9.84375V33.2812ZM10 33.6719V33.8281C10.4688 33.3594 11.0938 33.0469 11.7969 33.0469H12.0312V10.2344H11.7969C10.7812 10.2344 10 11.0156 10 12.0312V33.6719ZM18.5938 7.03125H39.2188V3.90625C39.2188 2.89062 38.3594 2.03125 37.2656 2.03125H15.3379L18.5938 7.03125ZM13.6719 0.9375H2.89062C1.71875 0.9375 0.78125 1.875 0.78125 2.96875V7.03125H17.6399L13.6719 0.9375ZM22.1094 5.70312H35.2344C35.8594 5.70312 36.4062 5.15625 36.4062 4.53125C36.4062 3.90625 35.8594 3.35938 35.2344 3.35938H22.1094C21.4844 3.35938 20.9375 3.90625 20.9375 4.53125C20.9375 5.15625 21.4844 5.70312 22.1094 5.70312ZM21.7188 4.53125C21.7188 4.29688 21.9531 4.14062 22.1094 4.14062H35.2344C35.3906 4.14062 35.625 4.29688 35.625 4.53125C35.625 4.6875 35.3906 4.92188 35.2344 4.92188H22.1094C21.9531 4.92188 21.7188 4.6875 21.7188 4.53125ZM3.28125 5.39062H2.89062C2.10938 5.39062 1.48438 4.76562 1.48438 3.98438C1.48438 3.20312 2.10938 2.57812 2.89062 2.57812H3.28125C4.14062 2.57812 4.76562 3.20312 4.76562 3.98438C4.76562 4.76562 4.14062 5.39062 3.28125 5.39062ZM2.89062 3.35938C2.57812 3.35938 2.26562 3.67188 2.26562 3.98438C2.26562 4.29688 2.57812 4.60938 2.89062 4.60938H3.28125C3.67188 4.60938 3.98438 4.29688 3.98438 3.98438C3.98438 3.67188 3.67188 3.35938 3.28125 3.35938H2.89062ZM7.5 5.39062H7.89062C8.67188 5.39062 9.29688 4.76562 9.29688 3.98438C9.29688 3.20312 8.67188 2.57812 7.89062 2.57812H7.5C6.71875 2.57812 6.01562 3.20312 6.01562 3.98438C6.01562 4.76562 6.71875 5.39062 7.5 5.39062ZM6.79688 3.98438C6.79688 3.67188 7.10938 3.35938 7.5 3.35938H7.89062C8.20312 3.35938 8.51562 3.67188 8.51562 3.98438C8.51562 4.29688 8.20312 4.60938 7.89062 4.60938H7.5C7.10938 4.60938 6.79688 4.29688 6.79688 3.98438ZM12.4219 5.39062H12.0312C11.25 5.39062 10.625 4.76562 10.625 3.98438C10.625 3.20312 11.25 2.57812 12.0312 2.57812H12.4219C13.2812 2.57812 13.9062 3.20312 13.9062 3.98438C13.9062 4.76562 13.2812 5.39062 12.4219 5.39062ZM12.0312 3.35938C11.7188 3.35938 11.4062 3.67188 11.4062 3.98438C11.4062 4.29688 11.7188 4.60938 12.0312 4.60938H12.4219C12.8125 4.60938 13.125 4.29688 13.125 3.98438C13.125 3.67188 12.8125 3.35938 12.4219 3.35938H12.0312ZM25.3125 35.4688H30V33.8281H12.4219H11.7969C10.8594 33.8281 10 34.6875 10 35.625V36.0156C10 37.0312 10.8594 37.8906 11.7969 37.8906H14.1406V35.8594H13.2031C12.9688 35.8594 12.8125 35.7031 12.8125 35.4688C12.8125 35.2344 12.9688 35.0781 13.2031 35.0781H14.5312H17.5781H18.9062C19.1406 35.0781 19.2969 35.2344 19.2969 35.4688C19.2969 35.7031 19.1406 35.8594 18.9062 35.8594H17.9688V37.8906H30V36.25H25.3125C25.0781 36.25 24.9219 36.0938 24.9219 35.8594C24.9219 35.625 25.0781 35.4688 25.3125 35.4688ZM12.8125 33.0469H30V10.2344H12.8125V33.0469ZM14.9219 38.2812V35.8594H17.1875V38.2812V38.8281L16.1719 38.3594H15.8594L14.9219 38.8281V38.2812Z" fill="white"/>
</g>
<defs>
<clipPath id="clip0_8864_1407">
<rect width="40" height="40" fill="white"/>
</clipPath>
</defs>
</svg>
