<svg width="12" height="12" viewBox="0 0 12 12" fill="none" xmlns="http://www.w3.org/2000/svg">
<path opacity="0.5" d="M0.5 6C0.5 4.125 0.5 3.1875 0.9775 2.5305C1.13153 2.31834 1.31798 2.13172 1.53 1.9775C2.1875 1.5 3.1255 1.5 5 1.5H7C8.875 1.5 9.8125 1.5 10.4695 1.9775C10.6817 2.13168 10.8683 2.3183 11.0225 2.5305C11.5 3.1875 11.5 4.1255 11.5 6C11.5 7.8745 11.5 8.8125 11.0225 9.4695C10.8683 9.6817 10.6817 9.86832 10.4695 10.0225C9.8125 10.5 8.8745 10.5 7 10.5H5C3.125 10.5 2.1875 10.5 1.5305 10.0225C1.3183 9.86832 1.13168 9.6817 0.9775 9.4695C0.5 8.8125 0.5 7.8745 0.5 6Z" fill="white"/>
<path d="M6.375 1.5C6.375 1.40054 6.33549 1.30516 6.26516 1.23483C6.19484 1.16451 6.09946 1.125 6 1.125C5.90054 1.125 5.80516 1.16451 5.73484 1.23483C5.66451 1.30516 5.625 1.40054 5.625 1.5V2.5C5.625 2.59946 5.66451 2.69484 5.73484 2.76517C5.80516 2.83549 5.90054 2.875 6 2.875C6.09946 2.875 6.19484 2.83549 6.26516 2.76517C6.33549 2.69484 6.375 2.59946 6.375 2.5V1.5ZM4 4.875C3.90054 4.875 3.80516 4.91451 3.73483 4.98484C3.66451 5.05516 3.625 5.15054 3.625 5.25C3.625 5.34946 3.66451 5.44484 3.73483 5.51516C3.80516 5.58549 3.90054 5.625 4 5.625H8C8.09946 5.625 8.19484 5.58549 8.26517 5.51516C8.33549 5.44484 8.375 5.34946 8.375 5.25C8.375 5.15054 8.33549 5.05516 8.26517 4.98484C8.19484 4.91451 8.09946 4.875 8 4.875H4ZM4 6.625C3.90054 6.625 3.80516 6.66451 3.73483 6.73484C3.66451 6.80516 3.625 6.90054 3.625 7C3.625 7.09946 3.66451 7.19484 3.73483 7.26516C3.80516 7.33549 3.90054 7.375 4 7.375H6.75C6.84946 7.375 6.94484 7.33549 7.01516 7.26516C7.08549 7.19484 7.125 7.09946 7.125 7C7.125 6.90054 7.08549 6.80516 7.01516 6.73484C6.94484 6.66451 6.84946 6.625 6.75 6.625H4Z" fill="white"/>
</svg>
