<svg width="40" height="40" viewBox="0 0 40 40" fill="none" xmlns="http://www.w3.org/2000/svg">
<g clip-path="url(#clip0_8867_1438)">
<path fill-rule="evenodd" clip-rule="evenodd" d="M32.4145 39.7567H4.81934C4.56059 39.7567 4.35059 39.5465 4.35059 39.288V31.4193C4.35059 30.8022 5.28809 30.8024 5.28809 31.4193V38.8187H31.9458V18.1899C31.9458 17.573 32.8833 17.573 32.8833 18.1899V39.2877C32.8837 39.5463 32.6735 39.7565 32.4145 39.7565V39.7567ZM4.81934 28.0089C4.56059 28.0089 4.35059 27.7986 4.35059 27.5401V21.9392C4.35059 21.3221 5.28809 21.3224 5.28809 21.9392V27.5401C5.28809 27.7989 5.07809 28.0089 4.81934 28.0089ZM4.81934 18.5293C4.56059 18.5293 4.35059 18.3193 4.35059 18.0605V12.4599C4.35059 11.8428 5.28809 11.8428 5.28809 12.4599V18.0605C5.28809 18.3195 5.07809 18.5295 4.81934 18.5295V18.5293ZM32.4145 11.6281C32.1558 11.6281 31.9458 11.4181 31.9458 11.1593V1.18079H5.28809V8.58074C5.28809 9.19785 4.35059 9.19785 4.35059 8.58074V0.712038C4.35059 0.453287 4.56059 0.243286 4.81934 0.243286H32.4145C32.6733 0.243286 32.8833 0.453287 32.8833 0.712038V11.1593C32.8837 11.4181 32.6735 11.6281 32.4145 11.6281Z" fill="white"/>
<path fill-rule="evenodd" clip-rule="evenodd" d="M2.87972 10.9891H0.468693C-0.148419 10.9891 -0.148419 10.0516 0.468693 10.0516H2.87972C3.4966 10.0516 3.49706 10.9891 2.87972 10.9891Z" fill="white"/>
<path fill-rule="evenodd" clip-rule="evenodd" d="M2.87972 20.4688H0.468693C-0.148419 20.4688 -0.148419 19.5312 0.468693 19.5312H2.87972C3.4966 19.5312 3.49706 20.4688 2.87972 20.4688Z" fill="white"/>
<path fill-rule="evenodd" clip-rule="evenodd" d="M2.87979 29.9484H0.468762C-0.148116 29.9484 -0.148116 29.0109 0.468762 29.0109H2.87979C3.49666 29.0109 3.49713 29.9484 2.87979 29.9484Z" fill="white"/>
<path fill-rule="evenodd" clip-rule="evenodd" d="M4.81935 12.9284C3.49161 12.9284 2.41113 11.8479 2.41113 10.5202C2.41113 9.19241 3.49161 8.11194 4.81935 8.11194C6.14732 8.11194 7.22756 9.19241 7.22756 10.5202C7.22756 11.8479 6.14732 12.9284 4.81935 12.9284ZM4.81935 9.04921C2.88363 9.04921 2.88363 11.9913 4.81935 11.9913C6.75553 11.9913 6.75553 9.04921 4.81935 9.04921Z" fill="white"/>
<path fill-rule="evenodd" clip-rule="evenodd" d="M4.81935 22.4085C3.49161 22.4085 2.41113 21.328 2.41113 20C2.41113 18.6718 3.49161 17.5918 4.81935 17.5918C6.14732 17.5918 7.22756 18.6723 7.22756 20C7.22756 21.3277 6.14732 22.4085 4.81935 22.4085ZM4.81935 18.5293C2.88387 18.5293 2.8834 21.4712 4.81935 21.4712C6.75576 21.4712 6.75506 18.5293 4.81935 18.5293Z" fill="white"/>
<path fill-rule="evenodd" clip-rule="evenodd" d="M4.81935 31.8881C3.49161 31.8881 2.41113 30.8076 2.41113 29.4799C2.41113 28.1517 3.49161 27.0714 4.81935 27.0714C6.14732 27.0714 7.22756 28.1519 7.22756 29.4799C7.22779 30.8078 6.14732 31.8881 4.81935 31.8881ZM4.81935 28.0089C2.88363 28.0089 2.88363 30.9508 4.81935 30.9508C6.75553 30.9508 6.75529 28.0089 4.81935 28.0089Z" fill="white"/>
<path opacity="0.5" fill-rule="evenodd" clip-rule="evenodd" d="M23.8993 14.8091H11.9485C11.6897 14.8091 11.4797 14.5991 11.4797 14.3403V6.70178C11.4797 6.44303 11.6897 6.23303 11.9485 6.23303H27.2258C27.4846 6.23303 27.6946 6.44303 27.6946 6.70178V9.96641C27.6946 10.5835 26.7571 10.5835 26.7571 9.96641V7.17054H12.4172V13.872L23.8993 13.8718C24.5162 13.8718 24.5167 14.8091 23.8993 14.8091Z" fill="white"/>
<path opacity="0.5" fill-rule="evenodd" clip-rule="evenodd" d="M26.3475 19.4446H12.5449C11.9278 19.4446 11.9278 18.5071 12.5449 18.5071H26.3475C26.9646 18.5071 26.9646 19.4446 26.3475 19.4446Z" fill="white"/>
<path opacity="0.5" fill-rule="evenodd" clip-rule="evenodd" d="M24.9816 24.2188H12.5449C11.9281 24.2188 11.9281 23.2812 12.5449 23.2812H24.9816C25.5985 23.2812 25.5985 24.2188 24.9816 24.2188Z" fill="white"/>
<path opacity="0.5" fill-rule="evenodd" clip-rule="evenodd" d="M26.6291 33.7672H12.5449C11.9281 33.7672 11.9281 32.8297 12.5449 32.8297H26.6291C27.2459 32.8297 27.2462 33.7672 26.6291 33.7672Z" fill="white"/>
<path opacity="0.5" fill-rule="evenodd" clip-rule="evenodd" d="M24.9816 28.9933H12.5449C11.9281 28.9933 11.9281 28.0558 12.5449 28.0558H24.9816C25.5985 28.0558 25.5985 28.9933 24.9816 28.9933Z" fill="white"/>
<path fill-rule="evenodd" clip-rule="evenodd" d="M28.8765 20.1314C24.0266 20.1314 21.5891 14.2444 25.0178 10.8159C27.1506 8.6831 30.6023 8.6831 32.7351 10.8159C36.167 14.2479 33.7091 20.1314 28.8765 20.1314ZM28.8765 10.155C24.86 10.155 22.8416 15.0309 25.6811 17.8704C27.4466 19.6362 30.306 19.6362 32.0718 17.8704C34.9152 15.0272 32.8773 10.155 28.8765 10.155Z" fill="white"/>
<path fill-rule="evenodd" clip-rule="evenodd" d="M34.104 20.371C33.9842 20.371 33.8642 20.3251 33.7723 20.2334L32.0715 18.5328C31.635 18.0959 32.2983 17.4334 32.7347 17.8698L34.4354 19.5704C34.7314 19.8666 34.5179 20.371 34.104 20.371Z" fill="white"/>
<path fill-rule="evenodd" clip-rule="evenodd" d="M38.4181 25.7977C37.9946 25.7977 37.5974 25.6337 37.2992 25.336L33.7719 21.8086C32.2822 20.3187 34.5474 18.11 36.0095 19.5708L39.537 23.0979C40.5296 24.0905 39.8244 25.7977 38.4181 25.7977ZM34.8912 20.0464C34.3159 20.0464 34.0325 20.7425 34.4356 21.1456L37.9625 24.673C38.5494 25.2598 39.4843 24.3713 38.8742 23.7612L35.3471 20.2339C35.2262 20.1127 35.0644 20.0464 34.8912 20.0464Z" fill="white"/>
</g>
<defs>
<clipPath id="clip0_8867_1438">
<rect width="40" height="40" fill="white"/>
</clipPath>
</defs>
</svg>
