<svg width="40" height="40" viewBox="0 0 40 40" fill="none" xmlns="http://www.w3.org/2000/svg">
<g clip-path="url(#clip0_8867_1469)">
<path d="M16.5125 11.2077C16.5125 9.02747 18.3013 7.25366 20.5 7.25366C22.6987 7.25366 24.4875 9.02747 24.4875 11.2077C24.4875 13.388 22.6987 15.1618 20.5 15.1618C18.3013 15.1618 16.5125 13.388 16.5125 11.2077ZM17.7391 11.2077C17.7391 12.718 18.978 13.9455 20.5 13.9455C22.022 13.9455 23.2609 12.717 23.2609 11.2077C23.2609 9.69848 22.022 8.46999 20.5 8.46999C18.978 8.46999 17.7391 9.69746 17.7391 11.2077ZM37 19.5649V19.8954C37 20.9911 36.1005 21.883 34.9955 21.883H27.7575C27.9292 22.5074 28.0222 23.1632 28.0222 23.8403V24.193C28.0222 25.3415 27.0808 26.275 25.9227 26.275H15.0773C13.9192 26.275 12.9778 25.3415 12.9778 24.193V23.8403C12.9778 23.1632 13.0708 22.5074 13.2425 21.883H6.00449C4.89952 21.883 4 20.9911 4 19.8954V19.5649C4 15.694 7.17591 12.5437 11.0806 12.5437C13.9673 12.5437 16.5708 14.3205 17.644 16.9407C18.5252 16.5809 19.4901 16.3802 20.5 16.3802C21.5109 16.3802 22.4748 16.5798 23.356 16.9407C24.4293 14.3205 27.0327 12.5437 29.9194 12.5437C33.8241 12.5437 37 15.694 37 19.5649ZM13.6943 20.6667C14.3179 19.3571 15.3145 18.2553 16.5472 17.4972C15.6855 15.2743 13.5022 13.76 11.0796 13.76C7.85157 13.76 5.22559 16.3639 5.22559 19.5649V19.8954C5.22559 20.3211 5.57415 20.6667 6.00347 20.6667H13.6943ZM26.7956 23.8403C26.7956 20.3981 23.9713 17.5975 20.5 17.5975C17.0287 17.5975 14.2044 20.3981 14.2044 23.8403V24.193C14.2044 24.6704 14.5959 25.0587 15.0773 25.0587H25.9227C26.4041 25.0587 26.7956 24.6704 26.7956 24.193V23.8403ZM35.7734 19.5649C35.7734 16.3639 33.1474 13.76 29.9194 13.76C27.4968 13.76 25.3134 15.2743 24.4517 17.4972C25.6845 18.2553 26.6811 19.3571 27.3046 20.6667H34.9945C35.4238 20.6667 35.7724 20.3211 35.7724 19.8954L35.7734 19.5649Z" fill="white"/>
<g opacity="0.4">
<path fill-rule="evenodd" clip-rule="evenodd" d="M7.30811 7.74021C7.30811 5.67752 8.99981 4 11.0799 4C13.1601 4 14.8518 5.67752 14.8518 7.74021C14.8518 9.80289 13.1601 11.4804 11.0799 11.4804C8.99981 11.4804 7.30811 9.80188 7.30811 7.74021ZM11.0799 10.2641C9.67649 10.2641 8.53472 9.13189 8.53472 7.74021C8.53472 6.34852 9.67649 5.21633 11.0799 5.21633C12.4834 5.21633 13.6252 6.34852 13.6252 7.74021C13.6252 9.13189 12.4834 10.2641 11.0799 10.2641Z" fill="white"/>
<path fill-rule="evenodd" clip-rule="evenodd" d="M26.1479 7.74021C26.1479 5.67752 27.8396 4 29.9197 4C31.9998 4 33.6915 5.67752 33.6915 7.74021C33.6915 9.80289 31.9998 11.4804 29.9197 11.4804C27.8396 11.4804 26.1479 9.80188 26.1479 7.74021ZM29.9197 10.2641C28.5163 10.2641 27.3745 9.13189 27.3745 7.74021C27.3745 6.34852 28.5163 5.21633 29.9197 5.21633C31.3232 5.21633 32.4649 6.34852 32.4649 7.74021C32.4649 9.13189 31.3232 10.2641 29.9197 10.2641Z" fill="white"/>
</g>
<rect x="0.5" y="0.5" width="39" height="39" rx="0.5" stroke="white"/>
<g opacity="0.4">
<path d="M36.9991 35.058C36.9842 34.7772 36.7372 34.5617 36.4473 34.5761C25.7145 35.1166 14.6471 35.1166 3.55162 34.577C3.26171 34.5625 3.01559 34.7789 3.0007 35.0597C2.98581 35.3397 3.20916 35.579 3.49907 35.5934C14.6296 36.1355 25.7338 36.1355 36.5016 35.5934C36.7819 35.579 37 35.3541 37 35.0852C37 35.0758 36.9991 35.0674 36.9991 35.058Z" fill="white"/>
<path d="M3.00683 29.4304C3.05238 29.1521 3.32127 28.9629 3.60768 29.0062C14.8713 30.7208 25.9002 30.7208 36.3878 29.0079C36.6733 28.9612 36.9448 29.1478 36.993 29.4253C36.9974 29.4533 37 29.4821 37 29.5101C37 29.7545 36.8187 29.97 36.5621 30.0116C25.9632 31.7432 14.8205 31.7441 3.44477 30.0124C3.15748 29.9691 2.96217 29.7087 3.00683 29.4304Z" fill="white"/>
</g>
</g>
<defs>
<clipPath id="clip0_8867_1469">
<rect width="40" height="40" fill="white"/>
</clipPath>
</defs>
</svg>
