<svg width="41" height="41" viewBox="0 0 41 41" fill="none" xmlns="http://www.w3.org/2000/svg">
<g clip-path="url(#clip0_8840_1391)">
<path d="M34.5564 5.87708C30.7988 2.13348 25.8 0.0704956 20.4799 0.0683594C15.1716 0.0683594 10.1649 2.12952 6.38257 5.87219C2.59351 9.62128 0.504883 14.6036 0.5 19.8831V19.8892V19.8929C0.50061 23.0884 1.34015 26.312 2.93378 29.2545L0.554626 40.0684L11.493 37.5803C14.2634 38.9764 17.3546 39.7125 20.4722 39.7137H20.4802C25.7875 39.7137 30.7942 37.6523 34.5771 33.9093C38.3696 30.1572 40.4591 25.1813 40.4615 19.8984C40.4631 14.6527 38.3662 9.67316 34.5564 5.87708ZM20.4799 36.5918H20.4728C17.6735 36.5906 14.8997 35.8878 12.4519 34.5587L11.9346 34.278L4.66107 35.9323L6.24097 28.7521L5.9364 28.2269C4.42212 25.6155 3.62195 22.7328 3.62195 19.8895C3.62775 10.6863 11.1894 3.19031 20.4792 3.19031C24.9672 3.19214 29.1841 4.93195 32.353 8.08868C35.5699 11.2943 37.3408 15.488 37.3393 19.8975C37.3356 29.1028 29.7725 36.5918 20.4799 36.5918Z" fill="white"/>
<path opacity="0.5" d="M15.0433 11.1523H14.1674C13.8625 11.1523 13.3676 11.2665 12.9489 11.7221C12.5298 12.178 11.3491 13.28 11.3491 15.5212C11.3491 17.7625 12.987 19.928 13.2153 20.2322C13.4438 20.5362 16.3769 25.2823 21.0223 27.1082C24.8831 28.6255 25.6689 28.3237 26.5066 28.2477C27.3446 28.172 29.2108 27.146 29.5916 26.0825C29.9725 25.0189 29.9725 24.1071 29.8583 23.9166C29.7439 23.7268 29.439 23.613 28.9822 23.3853C28.525 23.1573 26.285 22.0367 25.866 21.8845C25.447 21.7328 25.1425 21.6568 24.8376 22.113C24.5327 22.5684 23.6352 23.6218 23.3685 23.9258C23.1021 24.23 22.8353 24.2682 22.3782 24.0402C21.921 23.8116 20.4641 23.3221 18.7182 21.7706C17.3593 20.5631 16.4163 19.0231 16.1495 18.5672C15.8831 18.1116 16.1212 17.865 16.3503 17.6376C16.5557 17.4338 16.8331 17.1548 17.0617 16.889C17.29 16.6229 17.355 16.4331 17.5076 16.1292C17.6599 15.8252 17.5836 15.5591 17.4694 15.3314C17.355 15.1035 16.4779 12.851 16.0714 11.9501H16.0717C15.7293 11.1914 15.3689 11.1658 15.0433 11.1523Z" fill="white"/>
</g>
<defs>
<clipPath id="clip0_8840_1391">
<rect width="40" height="40" fill="white" transform="translate(0.5 0.0683594)"/>
</clipPath>
</defs>
</svg>
